<svg width="43" height="38" viewBox="0 0 43 38" fill="none" xmlns="http://www.w3.org/2000/svg">
<path d="M37.147 5.82903C36.2429 4.93215 35.1695 4.22067 33.988 3.73526C32.8066 3.24984 31.5402 3 30.2614 3C28.9825 3 27.7162 3.24984 26.5348 3.73526C25.3533 4.22067 24.2799 4.93215 23.3758 5.82903L21.4995 7.68952L19.6233 5.82903C17.7971 4.01823 15.3203 3.00094 12.7377 3.00094C10.1551 3.00094 7.67827 4.01823 5.8521 5.82903C4.02593 7.63983 3 10.0958 3 12.6567C3 15.2175 4.02593 17.6735 5.8521 19.4843L7.72837 21.3448L21.4995 35L35.2707 21.3448L37.147 19.4843C38.0515 18.5878 38.769 17.5234 39.2585 16.3519C39.748 15.1804 40 13.9247 40 12.6567C40 11.3886 39.748 10.1329 39.2585 8.96139C38.769 7.78989 38.0515 6.7255 37.147 5.82903V5.82903Z" stroke="#777B7D" stroke-opacity="0.67" stroke-width="5" stroke-linecap="round" stroke-linejoin="round"/>
</svg>
